<svg width="210" height="210" fill="none" xmlns="http://www.w3.org/2000/svg"><g clip-path="url(#clip0_1988_267651)"><mask id="a" style="mask-type:luminance" maskUnits="userSpaceOnUse" x="0" y="0" width="210" height="210"><path d="M179.667 0H30.333C13.581 0 0 13.58 0 30.333v149.334C0 196.419 13.58 210 30.333 210h149.334C196.419 210 210 196.419 210 179.667V30.333C210 13.581 196.419 0 179.667 0z" fill="#fff"/></mask><g mask="url(#a)"><path d="M141.68-59.15c4.83 0 8.75 3.92 8.75 8.75v328.067c0 4.83-3.92 8.75-8.75 8.75H68.32c-4.83 0-8.75-3.92-8.75-8.75V-50.4c0-4.83 3.92-8.75 8.75-8.75h73.36zm0-9.333H68.32c-9.964 0-18.084 8.12-18.084 18.083v328.067c0 9.963 8.12 18.083 18.084 18.083h73.36c9.963 0 18.083-8.12 18.083-18.083V-50.4c0-9.963-8.12-18.083-18.083-18.083z" fill="#000"/><path d="M105.001 22.843c18.2 0 33.087 14.887 33.087 33.087v98.117c0 18.2-14.887 33.086-33.087 33.086-18.2 0-33.087-14.886-33.087-33.086V55.93c0-18.2 14.887-33.087 33.087-33.087zm0-8.633c-23.007 0-41.743 18.713-41.743 41.743v98.117c0 23.007 18.713 41.743 41.743 41.743s41.743-18.713 41.743-41.743V55.953c0-23.006-18.713-41.743-41.743-41.743z" fill="#000"/><path d="M104.999 165.06c-8.213 0-14.887-6.673-14.887-14.886V59.78c0-8.213 6.674-14.886 14.887-14.886 8.213 0 14.887 6.673 14.887 14.886v90.394c0 8.213-6.674 14.886-14.887 14.886z" fill="#F15B41"/><path d="M105 48.417c6.253 0 11.387 5.11 11.387 11.386v90.394c0 6.253-5.11 11.386-11.387 11.386s-11.387-5.11-11.387-11.386V59.803c0-6.253 5.11-11.386 11.387-11.386zm0-7c-10.127 0-18.387 8.236-18.387 18.386v90.394c0 10.126 8.237 18.386 18.387 18.386s18.387-8.236 18.387-18.386V59.803c0-10.126-8.237-18.386-18.387-18.386z" fill="#F15B41"/></g></g><defs><clipPath id="clip0_1988_267651"><path fill="#fff" d="M0 0h210v210H0z"/></clipPath></defs></svg>