<svg width="48" height="34" fill="none" xmlns="http://www.w3.org/2000/svg"><path fill="#1F72CD" d="M0 0h48v34H0z"/><path fill-rule="evenodd" clip-rule="evenodd" d="M9.162 11.657L4.8 21.596h5.223l.647-1.585h1.48l.647 1.585h5.75v-1.21l.511 1.21h2.974l.512-1.236v1.236H34.5l1.454-1.544 1.361 1.544 6.141.012-4.376-4.954 4.376-4.997H37.41l-1.415 1.515-1.318-1.515H21.67l-1.117 2.565-1.143-2.565h-5.212v1.168l-.58-1.168H9.162zm17.854 1.411h6.866l2.1 2.335 2.167-2.335h2.1l-3.19 3.585 3.19 3.543h-2.195l-2.1-2.363-2.179 2.363h-6.759v-7.128zm1.696 2.779v-1.303h4.284l1.869 2.082-1.952 2.093h-4.201v-1.421h3.745v-1.451h-3.745zm-18.539-2.779h2.546l2.894 6.74v-6.74H18.4l2.236 4.832 2.06-4.832h2.774V20.2h-1.688l-.014-5.588-2.462 5.588h-1.51l-2.475-5.588V20.2h-3.474l-.657-1.6H9.632l-.657 1.597H7.114l3.059-7.13zm.066 4.055l1.173-2.848 1.17 2.848H10.24z" fill="#fff"/></svg>