<svg width="48" height="34" fill="none" xmlns="http://www.w3.org/2000/svg"><path fill="#fff" d="M0 0h48v34H0z"/><path d="M13.664 12.641c-.363.43-.944.77-1.526.72-.072-.58.212-1.198.545-1.58.364-.442 1-.757 1.514-.78.06.605-.175 1.198-.533 1.64zm.527.836c-.842-.049-1.562.478-1.962.478-.406 0-1.017-.454-1.683-.442-.866.012-1.672.503-2.114 1.284-.908 1.562-.236 3.875.642 5.147.43.63.945 1.32 1.623 1.296.642-.024.896-.418 1.671-.418.782 0 1.006.418 1.684.406.702-.012 1.144-.63 1.574-1.26.49-.714.69-1.41.703-1.447-.012-.012-1.357-.527-1.369-2.077-.012-1.296 1.06-1.913 1.108-1.95-.605-.896-1.55-.993-1.877-1.017zm4.863-1.756v9.44h1.465v-3.227h2.029c1.853 0 3.154-1.272 3.154-3.113 0-1.84-1.277-3.1-3.106-3.1h-3.542zm1.465 1.235h1.69c1.271 0 1.998.678 1.998 1.871s-.727 1.877-2.005 1.877H20.52v-3.748zm7.86 8.278c.92 0 1.774-.467 2.162-1.205h.03v1.132h1.356v-4.699c0-1.362-1.09-2.24-2.767-2.24-1.556 0-2.707.89-2.75 2.113h1.32c.11-.581.649-.963 1.388-.963.896 0 1.398.418 1.398 1.187v.52l-1.828.11c-1.702.103-2.622.8-2.622 2.01 0 1.223.95 2.035 2.313 2.035zm.393-1.12c-.78 0-1.277-.376-1.277-.951 0-.594.478-.939 1.392-.993l1.63-.103v.533c0 .884-.752 1.513-1.744 1.513zm4.966 3.615c1.429 0 2.101-.545 2.688-2.198L39 14.313h-1.49l-1.725 5.577h-.03l-1.727-5.578h-1.532l2.483 6.873-.133.418c-.224.709-.587.981-1.235.981-.115 0-.34-.012-.43-.024v1.132c.085.024.448.037.557.037z" fill="#000"/></svg>