<svg width="48" height="34" fill="none" xmlns="http://www.w3.org/2000/svg"><path fill="#FFEB00" d="M0 0h48v34H0z"/><path fill-rule="evenodd" clip-rule="evenodd" d="M12.711 12.54c-2.795 0-5.06 1.818-5.06 4.061 0 1.346.817 2.537 2.074 3.276l-.596 2.26c-.057.217.181.389.364.263l2.585-1.772c.208.021.418.033.633.033 2.795 0 5.06-1.817 5.06-4.06 0-2.243-2.265-4.06-5.06-4.06zm9.832 2.309v3.99c.096.011.337.036.565.036 1.248 0 1.73-.89 1.73-2.294 0-1.232-.325-1.976-1.322-1.976-.324 0-.685.098-.973.244zm0 5.233v2.5H20.79v-9.221h1.237l.216.585c.373-.378.937-.78 1.85-.78 1.717 0 2.534 1.305 2.522 3.415 0 2.208-1.261 3.623-3.063 3.623-.348 0-.613-.024-1.009-.122zm8.785-1.769v-1.22h-.805c-.901 0-1.358.33-1.358.988 0 .5.253.745.77.745.48 0 1.092-.245 1.393-.513zm-.997-2.354h.997v-.22c0-.732-.41-1.073-1.118-1.073a4.33 4.33 0 00-1.801.439l-.48-1.196c.624-.439 1.585-.744 2.438-.744 1.681 0 2.594.903 2.594 2.623v4.233h-1.237l-.18-.561c-.709.524-1.358.744-1.946.744-1.285 0-2.006-.78-2.006-2.098 0-1.403.961-2.147 2.739-2.147zm7.781 3.379c-.613 1.659-1.345 2.866-2.415 3.538l-1.08-1.013c.624-.549 1.069-1.086 1.453-1.805l-2.33-6.453 1.741-.476 1.49 5.233 1.477-5.257 1.718.487-2.054 5.746z" fill="#1E1E1E"/></svg>