<svg width="48" height="34" fill="none" xmlns="http://www.w3.org/2000/svg"><path fill="#fff" d="M0 0h48v34H0z"/><path fill-rule="evenodd" clip-rule="evenodd" d="M30.413 25.791c5.169 0 9.359-4.238 9.359-9.467 0-5.228-4.19-9.467-9.359-9.467a9.258 9.258 0 00-6.07 2.262 9.258 9.258 0 00-6.07-2.262c-5.17 0-9.359 4.239-9.359 9.467 0 5.229 4.19 9.467 9.358 9.467a9.258 9.258 0 006.07-2.262 9.258 9.258 0 006.071 2.262z" fill="#ED0006"/><path fill-rule="evenodd" clip-rule="evenodd" d="M24.343 23.53a9.491 9.491 0 003.288-7.206 9.491 9.491 0 00-3.288-7.205 9.258 9.258 0 016.07-2.262c5.168 0 9.358 4.239 9.358 9.467 0 5.229-4.19 9.467-9.358 9.467a9.258 9.258 0 01-6.07-2.262z" fill="#F9A000"/><path fill-rule="evenodd" clip-rule="evenodd" d="M24.343 23.53a9.491 9.491 0 003.288-7.206 9.491 9.491 0 00-3.288-7.205 9.491 9.491 0 00-3.288 7.205 9.491 9.491 0 003.288 7.205z" fill="#FF5E00"/></svg>