<svg width="48" height="34" fill="none" xmlns="http://www.w3.org/2000/svg"><path fill="#fff" d="M0 0h48v34H0z"/><path fill-rule="evenodd" clip-rule="evenodd" d="M15.4 22.64h-2.908l-2.18-8.32c-.104-.382-.323-.72-.647-.88A9.465 9.465 0 007 12.56v-.32h4.684a1.22 1.22 0 011.213 1.04l1.13 6 2.907-7.04h2.828L15.4 22.64zm5.978 0h-2.746l2.261-10.4h2.746l-2.261 10.4zm5.814-7.519c.081-.56.566-.88 1.132-.88.889-.08 1.857.08 2.665.48l.485-2.24A6.951 6.951 0 0028.97 12c-2.665 0-4.605 1.44-4.605 3.44 0 1.52 1.374 2.32 2.344 2.8 1.049.48 1.453.8 1.372 1.28 0 .72-.808 1.04-1.615 1.04-.97 0-1.94-.24-2.827-.64l-.485 2.24c.97.4 2.02.56 2.99.56 2.988.08 4.845-1.36 4.845-3.52 0-2.72-3.797-2.88-3.797-4.079zM40.6 22.64l-2.18-10.4h-2.343c-.484 0-.97.32-1.13.8l-4.039 9.6h2.827l.565-1.52h3.473l.323 1.52H40.6zm-4.119-7.6l.807 3.92h-2.261l1.454-3.92z" fill="#172B85"/></svg>